<svg xmlns="http://www.w3.org/2000/svg" width="1em" height="1em" fill="none" viewBox="0 0 36 14"><path fill="#fff" fill-rule="evenodd" d="M2.615 3.24a10.64 10.64 0 0 0-1.37 2.234c-.37.816-.648 1.69-.795 2.6-.707 4.99 2.325 5.783 2.842 5.88 2.657.31 4.614-1.138 5.54-2.027.333 1.666 1.995 1.686 2.724.934a2.5 2.5 0 0 0 .451-.673c.433 1.574 1.817 1.038 1.98.968.772-.29 1.58-1.366 2.15-2.269.363 1.238 1.063 2.565 2.407 2.423.81-.02 2.843-2.183 3.03-1.9.188.233.238.662.225 1.301-.012.64.495.672.725.608.355-.098.578-.799.95-1.408.291-.477.508-.747.797-1.065.146-.157.806-.841 1.271-.609.465.232.513.71.545.973.036.265.036.545.047.852-.013 1.06.484 1.21.624 1.248 1.15.311 1.221-1.854 2.065-2.657.078-.082.815-.844 1.236.4.608 2.246 2.479 3.086 4.997 1.837.467-.232.559-.323.814-.513a.246.246 0 0 0 .099-.195v-.004a.245.245 0 0 0-.364-.213h-.002c-.257.144-1.115.43-1.386.528-1.016.167-2.26.13-2.874-1.358-.185-.448-.367-.851-.683-1.275-.357-.48-1.527-1.05-2.619-.021-.284.26-.493.548-.675.835a6.577 6.577 0 0 0-.207.354l-.012-.047c-.097-.333-.406-1.564-1.69-1.764-.176-.014-.89-.095-1.878.991a9.34 9.34 0 0 0-.901 1.183v.001c-.048-.22-.105-.42-.162-.509-.84-1.294-2.111-.26-2.659.125-1.227.864-1.796 2.026-2.544-.613a11.03 11.03 0 0 1-.233-1.134c.746-1.27 2.264-5.13 1.393-7.717-.057-.164-.36-1-1.09-.946-.105.01-.935-.077-1.39 2.248-.424 2.248-.33 5.145-.227 6.105.011.1.033.296.072.553-.719 1.232-1.663 2.632-2.238 2.698-.747.085-.539-.605-.995-2.137-.078-.2-.33-1.146-1.464-1.1-.554.024-1.141.168-1.943 1.046-1.301 1.426-4.27 3.57-6.392 2.223-.23-.18-1.378-1.118-.955-3.932a9.082 9.082 0 0 1 .68-2.245A9.924 9.924 0 0 1 3.699 4.09c2.18-2.683 4.07-2.996 4.442-2.98.956 0 1.205 1.24 1.204 1.228a.396.396 0 1 0 .787-.076c-.002-.011.002-.405-.162-.78-.15-.487-.58-.94-.832-1.108-.309-.215-.719-.33-1.202-.33-1.387 0-3.377.95-5.32 3.197Zm14.289 3.916c-.01-4.37.544-5.361.585-5.285.212.393.667 2.853-.576 5.542a24.417 24.417 0 0 1-.01-.257ZM9.71 11.449c.016-1.156 1.453-1.883 1.84-1.078.031.066.052.14.073.213-.067.213-.094.556-.32 1.021-.238.492-.613.736-.94.736-.36 0-.661-.3-.653-.892Z" clip-rule="evenodd"/></svg>