<svg xmlns="http://www.w3.org/2000/svg" viewBox="0 0 800 400"><defs><filter id="glow" width="200%" height="200%" x="-50%" y="-50%"><feGaussianBlur result="blur" stdDeviation="6"/><feComposite in="SourceGraphic" in2="blur" operator="over"/></filter><radialGradient id="centerGlow" cx="50%" cy="50%" r="5%" fx="50%" fy="50%"><stop offset="0%" stop-color="#70e0ff" stop-opacity=".3"/><stop offset="100%" stop-color="#0070ff" stop-opacity="0"/><animate attributeName="r" dur="2s" repeatCount="indefinite" values="1%;2;1%"/></radialGradient></defs><circle cx="400" cy="200" r="15" fill="url(#centerGlow)" opacity=".8"><animate attributeName="opacity" dur="2s" repeatCount="indefinite" values="0.2;0.8;0.2"/></circle><path fill="none" stroke="#70e0ff" stroke-width="3.5" d="M 320 150 A 100 100 0 0 0 320 250" filter="url(#glow)" opacity="0"><animate attributeName="opacity" begin="0s" dur="4s" repeatCount="indefinite" values="1;1;1"/></path><path fill="none" stroke="#60d0ff" stroke-width="3" d="M 290 125 A 150 150 0 0 0 290 275" filter="url(#glow)" opacity="0"><animate attributeName="opacity" begin="0s" dur="4s" repeatCount="indefinite" values="1;1;1"/></path><path fill="none" stroke="#50c0ff" stroke-width="2.5" d="M 250 100 A 200 200 0 0 0 250 300" filter="url(#glow)" opacity="0"><animate attributeName="opacity" begin="0s" dur="4s" repeatCount="indefinite" values="1;1;1"/></path><path fill="none" stroke="#40b0ff" stroke-width="2" d="M 200 75 A 250 250 0 0 0 200 325" filter="url(#glow)" opacity="0"><animate attributeName="opacity" begin="0s" dur="4s" repeatCount="indefinite" values="1;1;1"/></path><path fill="none" stroke="#0070ff" stroke-width="1.5" d="M 150 50 A 300 300 0 0 0 150 350" filter="url(#glow)" opacity="0"><animate attributeName="opacity" begin="0s" dur="4s" repeatCount="indefinite" values="1;1;1"/></path><path fill="none" stroke="#70e0ff" stroke-width="3.5" d="M 480 150 A 100 100 0 0 1 480 250" filter="url(#glow)" opacity="0"><animate attributeName="opacity" begin="0s" dur="4s" repeatCount="indefinite" values="1;1;1"/></path><path fill="none" stroke="#60d0ff" stroke-width="3" d="M 510 125 A 150 150 0 0 1 510 275" filter="url(#glow)" opacity="0"><animate attributeName="opacity" begin="0s" dur="4s" repeatCount="indefinite" values="1;1;1"/></path><path fill="none" stroke="#50c0ff" stroke-width="2.5" d="M 550 100 A 200 200 0 0 1 550 300" filter="url(#glow)" opacity="0"><animate attributeName="opacity" begin="0s" dur="4s" repeatCount="indefinite" values="1;1;1"/></path><path fill="none" stroke="#40b0ff" stroke-width="2" d="M 600 75 A 250 250 0 0 1 600 325" filter="url(#glow)" opacity="0"><animate attributeName="opacity" begin="0s" dur="4s" repeatCount="indefinite" values="1;1;1"/></path><path fill="none" stroke="#0070ff" stroke-width="1.5" d="M 650 50 A 300 300 0 0 1 650 350" filter="url(#glow)" opacity="0"><animate attributeName="opacity" begin="0s" dur="4s" repeatCount="indefinite" values="1;1;1"/></path></svg>